<?xml version="1.0" standalone="no"?>
<!DOCTYPE svg PUBLIC "-//W3C//DTD SVG 20010904//EN"
 "http://www.w3.org/TR/2001/REC-SVG-20010904/DTD/svg10.dtd">
<svg version="1.0" xmlns="http://www.w3.org/2000/svg"
 width="268.000000pt" height="268.000000pt" viewBox="0 0 268.000000 268.000000"
 preserveAspectRatio="xMidYMid meet">
<metadata>
Created by potrace 1.14, written by Peter Selinger 2001-2017
</metadata>
<g transform="translate(0.000000,268.000000) scale(0.100000,-0.100000)"
fill="#000000" stroke="none">
<path d="M1478 2155 c-2 -2 -15 -5 -30 -7 -14 -2 -41 -17 -59 -33 -31 -27 -34
-35 -34 -87 -1 -31 2 -55 6 -52 5 3 18 -28 18 -44 0 -8 67 -62 78 -62 7 0 13
-4 13 -8 0 -13 79 -5 97 9 14 12 16 12 8 -1 -5 -8 5 -1 21 15 16 17 28 36 25
44 -2 8 0 12 6 8 5 -3 9 3 8 16 -1 12 1 27 4 32 9 13 8 26 -7 51 -6 12 -9 24
-7 28 3 3 2 4 -1 2 -3 -3 -16 5 -29 17 -45 44 -107 82 -117 72z"/>
<path d="M1161 1923 c-7 -7 -17 -10 -23 -7 -6 4 -8 3 -5 -3 6 -10 -40 -38 -56
-34 -5 1 -6 -2 -4 -6 5 -10 -38 -54 -47 -47 -3 2 -4 1 -1 -3 3 -3 0 -12 -6
-19 -6 -8 -13 -31 -16 -51 -6 -45 -19 -63 -43 -63 -20 0 -35 -27 -18 -32 15
-5 19 -58 4 -64 -7 -3 -11 -21 -10 -47 1 -28 -5 -50 -17 -65 -19 -25 -16 -52
7 -52 8 0 14 -4 14 -10 0 -5 8 -10 19 -10 10 0 24 -6 31 -14 9 -12 7 -17 -9
-28 -12 -7 -21 -18 -21 -24 0 -7 -7 -15 -16 -18 -8 -3 -12 -10 -9 -16 3 -5 2
-10 -3 -10 -5 0 -9 -6 -9 -12 -1 -7 -3 -41 -6 -75 -3 -35 -1 -61 3 -58 4 3 18
-11 31 -30 13 -19 28 -35 32 -35 5 0 5 -5 1 -12 -4 -6 -3 -8 3 -5 13 8 36 -17
25 -28 -4 -5 -1 -5 6 -1 7 4 15 1 18 -8 3 -9 10 -13 16 -10 5 3 12 -3 15 -15
3 -11 9 -19 13 -16 5 3 12 0 15 -5 10 -17 55 -32 105 -36 119 -10 184 -8 188
4 2 6 10 12 18 12 8 0 17 7 20 15 4 8 12 15 20 15 8 0 14 5 14 11 0 5 5 7 12
3 7 -4 8 -3 4 5 -4 6 -3 18 4 26 6 7 12 34 13 59 1 25 4 46 8 46 3 0 5 11 4
25 -2 14 2 25 8 25 5 0 8 3 4 6 -13 13 21 32 52 30 18 -1 35 2 37 6 3 5 12 4
20 -3 8 -6 14 -8 14 -3 0 4 5 3 11 -3 6 -6 18 -9 25 -6 8 3 14 0 14 -7 0 -6 4
-9 9 -5 5 3 12 1 16 -5 4 -6 11 -8 16 -5 5 4 9 1 9 -4 0 -6 3 -10 8 -9 4 0 15
-2 24 -6 28 -13 43 -3 25 16 -9 8 -13 19 -9 23 4 5 2 5 -5 2 -6 -4 -30 10 -52
30 -22 21 -47 44 -55 51 -17 14 -6 59 13 54 6 -1 11 2 11 8 0 5 7 10 15 10 26
0 6 26 -30 39 -19 7 -35 17 -35 23 0 6 -3 9 -6 5 -3 -3 -18 8 -32 25 -24 29
-25 31 -8 43 17 13 17 14 -2 33 -11 11 -17 24 -14 28 4 5 0 4 -8 -2 -8 -6 -21
-9 -27 -8 -7 1 -20 2 -29 3 -9 1 -12 6 -8 14 6 10 4 10 -7 0 -15 -15 -33 -17
-25 -4 3 5 -6 9 -20 9 -14 0 -32 8 -40 18 -9 11 -12 12 -8 4 4 -8 -2 -6 -13 6
-15 15 -19 30 -17 55 7 54 10 68 16 74 3 3 2 22 -2 41 -5 20 -4 34 1 34 6 0 5
6 -1 13 -37 43 -58 64 -83 80 -35 23 -138 29 -156 10z"/>
<path d="M1493 1713 c-14 -13 -23 -23 -20 -23 4 0 3 -10 -2 -22 -7 -19 -2 -29
26 -54 29 -26 41 -31 72 -27 20 3 41 9 47 14 6 5 15 5 19 1 5 -4 5 -2 2 4 -3
6 0 23 8 38 8 14 10 24 5 21 -6 -4 -10 -2 -10 3 0 5 -11 22 -24 37 -32 37 -85
40 -123 8z"/>
</g>
</svg>
